<svg width="1536" height="806" viewBox="0 0 1536 806" fill="none" xmlns="http://www.w3.org/2000/svg">
<g clip-path="url(#clip0_166_10)">
<rect width="128" height="128" fill="#00070F"/>
<rect x="129" width="128" height="128" fill="#00070F"/>
<rect x="258" width="128" height="128" fill="#00070F"/>
<rect x="387" width="128" height="128" fill="#00070F"/>
<rect x="516" width="128" height="128" fill="#00070F"/>
<rect x="645" width="128" height="128" fill="#00070F"/>
<rect x="774" width="128" height="128" fill="#00070F"/>
<rect x="903" width="128" height="128" fill="#00070F"/>
<rect x="1032" width="128" height="128" fill="#00070F"/>
<rect x="1161" width="128" height="128" fill="#00070F"/>
<rect x="1290" width="128" height="128" fill="#00070F"/>
<rect x="1419" width="128" height="128" fill="#00070F"/>
<rect y="129" width="128" height="128" fill="#00070F"/>
<rect x="129" y="129" width="128" height="128" fill="#00070F"/>
<rect x="258" y="129" width="128" height="128" fill="#00070F"/>
<rect x="387" y="129" width="128" height="128" fill="#00070F"/>
<rect x="516" y="129" width="128" height="128" fill="#00070F"/>
<rect x="645" y="129" width="128" height="128" fill="#00070F"/>
<rect x="774" y="129" width="128" height="128" fill="#00070F"/>
<rect x="903" y="129" width="128" height="128" fill="#00070F"/>
<rect x="1032" y="129" width="128" height="128" fill="#00070F"/>
<rect x="1161" y="129" width="128" height="128" fill="#00070F"/>
<rect x="1290" y="129" width="128" height="128" fill="#00070F"/>
<rect x="1419" y="129" width="128" height="128" fill="#00070F"/>
<rect y="258" width="128" height="128" fill="#00070F"/>
<rect x="129" y="258" width="128" height="128" fill="#00070F"/>
<rect x="258" y="258" width="128" height="128" fill="#00070F"/>
<rect x="387" y="258" width="128" height="128" fill="#00070F"/>
<rect x="516" y="258" width="128" height="128" fill="#00070F"/>
<rect x="645" y="258" width="128" height="128" fill="#00070F"/>
<rect x="774" y="258" width="128" height="128" fill="#00070F"/>
<rect x="903" y="258" width="128" height="128" fill="#00070F"/>
<rect x="1032" y="258" width="128" height="128" fill="#00070F"/>
<rect x="1161" y="258" width="128" height="128" fill="#00070F"/>
<rect x="1290" y="258" width="128" height="128" fill="#00070F"/>
<rect x="1419" y="258" width="128" height="128" fill="#00070F"/>
<rect y="387" width="128" height="128" fill="#00070F"/>
<rect x="129" y="387" width="128" height="128" fill="#00070F"/>
<rect x="258" y="387" width="128" height="128" fill="#00070F"/>
<rect x="387" y="387" width="128" height="128" fill="#00070F"/>
<rect x="516" y="387" width="128" height="128" fill="#00070F"/>
<rect x="645" y="387" width="128" height="128" fill="#00070F"/>
<rect x="774" y="387" width="128" height="128" fill="#00070F"/>
<rect x="903" y="387" width="128" height="128" fill="#00070F"/>
<rect x="1032" y="387" width="128" height="128" fill="#00070F"/>
<rect x="1161" y="387" width="128" height="128" fill="#00070F"/>
<rect x="1290" y="387" width="128" height="128" fill="#00070F"/>
<rect x="1419" y="387" width="128" height="128" fill="#00070F"/>
<rect y="516" width="128" height="128" fill="#00070F"/>
<rect x="129" y="516" width="128" height="128" fill="#00070F"/>
<rect x="258" y="516" width="128" height="128" fill="#00070F"/>
<rect x="387" y="516" width="128" height="128" fill="#00070F"/>
<rect x="516" y="516" width="128" height="128" fill="#00070F"/>
<rect x="645" y="516" width="128" height="128" fill="#00070F"/>
<rect x="774" y="516" width="128" height="128" fill="#00070F"/>
<rect x="903" y="516" width="128" height="128" fill="#00070F"/>
<rect x="1032" y="516" width="128" height="128" fill="#00070F"/>
<rect x="1161" y="516" width="128" height="128" fill="#00070F"/>
<rect x="1290" y="516" width="128" height="128" fill="#00070F"/>
<rect x="1419" y="516" width="128" height="128" fill="#00070F"/>
<rect y="645" width="128" height="128" fill="#00070F"/>
<rect x="129" y="645" width="128" height="128" fill="#00070F"/>
<rect x="258" y="645" width="128" height="128" fill="#00070F"/>
<rect x="387" y="645" width="128" height="128" fill="#00070F"/>
<rect x="516" y="645" width="128" height="128" fill="#00070F"/>
<rect x="645" y="645" width="128" height="128" fill="#00070F"/>
<rect x="774" y="645" width="128" height="128" fill="#00070F"/>
<rect x="903" y="645" width="128" height="128" fill="#00070F"/>
<rect x="1032" y="645" width="128" height="128" fill="#00070F"/>
<rect x="1161" y="645" width="128" height="128" fill="#00070F"/>
<rect x="1290" y="645" width="128" height="128" fill="#00070F"/>
<rect x="1419" y="645" width="128" height="128" fill="#00070F"/>
<rect y="774" width="128" height="128" fill="#00070F"/>
<rect x="129" y="774" width="128" height="128" fill="#00070F"/>
<rect x="258" y="774" width="128" height="128" fill="#00070F"/>
<rect x="387" y="774" width="128" height="128" fill="#00070F"/>
<rect x="516" y="774" width="128" height="128" fill="#00070F"/>
<rect x="645" y="774" width="128" height="128" fill="#00070F"/>
<rect x="774" y="774" width="128" height="128" fill="#00070F"/>
<rect x="903" y="774" width="128" height="128" fill="#00070F"/>
<rect x="1032" y="774" width="128" height="128" fill="#00070F"/>
<rect x="1161" y="774" width="128" height="128" fill="#00070F"/>
<rect x="1290" y="774" width="128" height="128" fill="#00070F"/>
<rect x="1419" y="774" width="128" height="128" fill="#00070F"/>
</g>
<defs>
<clipPath id="clip0_166_10">
<rect width="1536" height="806" fill="white"/>
</clipPath>
</defs>
</svg>
